<?xml version="1.0" encoding="utf-8"?>
<!-- Generator: Adobe Illustrator 16.0.0, SVG Export Plug-In . SVG Version: 6.00 Build 0)  -->
<!DOCTYPE svg PUBLIC "-//W3C//DTD SVG 1.1//EN" "http://www.w3.org/Graphics/SVG/1.1/DTD/svg11.dtd">
<svg version="1.1" id="Layer_1" xmlns="http://www.w3.org/2000/svg" xmlns:xlink="http://www.w3.org/1999/xlink" x="0px" y="0px"
	 width="55.349px" height="52.242px" viewBox="0 0 55.349 52.242" enable-background="new 0 0 55.349 52.242" xml:space="preserve">
<g>
	<path fill="#E6E6E6" d="M45.972,31.122c-1.926,1.08-4.021,1.596-6.083,1.596c-1.344,0-2.675-0.223-3.798-0.672
		c-2.055,1.854-4.264,3.15-5.377,3.754c1.611,2.557,4.174,4.521,7.341,5.311c0.979,0.246,1.962,0.359,2.928,0.359
		c2.165,0,4.249-0.592,6.021-1.547c0.261-1.012,0.392-2.051,0.392-3.104C47.395,34.886,46.933,32.931,45.972,31.122z"/>
	<path fill="#E6E6E6" d="M43.462,15.872c-0.364,2.432-1.416,4.596-2.892,6.203c0.077,0.43,0.131,0.896,0.131,1.387
		c-0.006,2.844-1.474,5.318-3.308,7.311c0.525,0.064,1.055,0.1,1.58,0.1c2.613,0,5.248-0.838,7.477-2.574
		c2.574-2.02,4.125-4.869,4.572-7.775c-1.733-2.281-4.282-3.918-7.121-4.631c-0.146-0.031-0.281-0.09-0.432-0.115L43.462,15.872z"/>
	<path fill="#E6E6E6" d="M41.529,13.794c0-3.275-1.291-6.244-3.309-8.393c-0.062,0-0.12,0-0.176,0c-2.897,0-5.436,1.029-7.736,3.111
		c2.198,2.338,2.988,5.303,2.988,8.268c0,0.238-0.008,0.475-0.014,0.707c0.495-0.127,0.996-0.186,1.488-0.186
		c0.037,0,0.078,0,0.131,0c1.893,0.037,3.799,0.979,4.893,2.748C40.89,18.218,41.529,16.083,41.529,13.794z"/>
	<path fill="#E6E6E6" d="M19.669,5.618c-0.182,0-0.354,0-0.418-0.037c-1.979,2.174-3.167,5.047-3.167,8.174
		c0,0.045,0,0.084-0.017,0.107c0.137,0,0.275-0.004,0.418-0.004c3.334,0,6.383,1.326,8.546,3.465
		c1.814,0.127,3.671,1.09,4.649,3.002c0.523-1.027,1.303-1.777,2.127-2.162c0-0.137,0.006-0.277,0.006-0.418
		c0-3.35-1.387-6.689-4.083-9.078C25.414,6.614,22.535,5.618,19.669,5.618z"/>
	<polygon fill="#E6E6E6" points="23.445,17.556 23.443,17.556 23.443,17.56 	"/>
	<path fill="#E6E6E6" d="M23.07,17.495c-1.822-1.062-3.916-1.658-6.111-1.658c-0.705,0-1.422,0.061-2.133,0.189
		c-3.227,0.578-5.926,2.375-7.68,4.736c0.477,2.922,2.021,5.672,4.514,7.615c1.82-2.441,4.372-4.02,7.01-4.527
		c0-0.123-0.006-0.262-0.006-0.393C18.66,20.149,20.715,18.099,23.07,17.495z"/>
	<path fill="#E6E6E6" d="M12.388,31.151c-0.965,1.814-1.424,3.754-1.424,5.674c0,1.146,0.162,2.281,0.412,3.289
		c1.767,0.969,3.765,1.492,5.83,1.492c0.975,0,1.964-0.119,2.961-0.363c-0.307-1.102-0.454-2.203-0.454-3.295
		c0-2.598,0.823-5.092,2.284-7.156c-1.407-1.52-2.602-3.316-3.094-5.352C16.199,26.444,13.841,28.405,12.388,31.151z"/>
	<polygon fill="#E6E6E6" points="22.661,42.44 22.658,42.44 22.527,42.503 22.533,42.503 	"/>
	<path fill="#E6E6E6" d="M29.234,48.702c2.725-1.178,5.025-3.34,6.303-6.236c-3.105-1.289-5.4-3.705-6.562-6.492
		c-0.993-0.512-3.557-1.947-5.892-4.096c-0.883,1.713-1.353,3.623-1.353,5.57c0,1.65,0.328,3.328,1.058,4.934
		C24.126,45.38,26.529,47.562,29.234,48.702z"/>
	<polygon fill="#E6E6E6" points="22.789,42.382 22.658,42.44 22.661,42.44 	"/>
</g>
<g opacity="0.2">
	<defs>
		<path id="SVGID_1_" opacity="0.2" d="M-11.815-18.757v84h78v-84H-11.815z M37.543,6.243c0.057,0,0.115,0,0.176,0
			c2.018,2,3.309,5.113,3.309,8.389c0,2.289-0.639,4.476-1.734,6.308c-1.094-1.77-3-2.696-4.893-2.696c-0.053,0-0.094,0-0.131,0
			c-0.492,0-0.992,0.005-1.488,0.132c0.006-0.232,0.014-0.496,0.014-0.734c0-2.965-0.789-5.939-2.988-8.277
			C32.108,7.282,34.647,6.243,37.543,6.243z M15.584,14.588c0-3.127,1.188-6,3.166-8.174c0.064,0.037,0.236,0.037,0.418,0.037
			c2.865,0,5.744,0.996,8.062,3.049c2.695,2.389,4.082,5.729,4.082,9.078c0,0.141-0.006,0.281-0.006,0.418
			c-0.824,0.385-1.604,1.135-2.127,2.162c-0.979-1.912-2.834-2.875-4.648-3.002c-2.164-2.139-5.213-3.465-8.547-3.465
			c-0.143,0-0.281,0.004-0.418,0.004C15.584,14.672,15.584,14.633,15.584,14.588z M22.944,18.389c0,0-0.002,0-0.002,0.004v-0.004
			C22.944,18.389,22.944,18.389,22.944,18.389z M6.645,21.596c1.754-2.361,4.453-4.158,7.68-4.736
			c0.711-0.129,1.428-0.189,2.133-0.189c2.195,0,4.289,0.596,6.111,1.658c-2.354,0.604-4.41,2.654-4.406,5.963
			c0,0.131,0.006,0.27,0.006,0.393c-2.637,0.508-5.189,2.086-7.01,4.528C8.667,27.269,7.122,24.518,6.645,21.596z M16.706,42.44
			c-2.064,0-4.062-0.523-5.83-1.492c-0.25-1.008-0.412-2.143-0.412-3.289c0-1.92,0.459-3.859,1.424-5.674
			c1.453-2.746,3.811-4.707,6.516-5.711c0.492,2.035,1.688,3.832,3.094,5.352c-1.461,2.064-2.283,4.559-2.283,7.156
			c0,1.092,0.146,2.193,0.453,3.295C18.67,42.321,17.68,42.44,16.706,42.44z M28.733,49.536c-2.705-1.141-5.107-3.322-6.445-6.32
			l-0.127,0.011l-0.129,0.017h-0.006l0.131-0.017l0.131-0.034c-0.729-1.605-1.057-3.272-1.057-4.923
			c0-1.947,0.469-3.852,1.352-5.564c2.336,2.148,4.898,3.588,5.893,4.1c1.16,2.787,3.455,5.205,6.561,6.494
			C33.758,46.195,31.458,48.358,28.733,49.536z M46.502,40.757c-1.771,0.955-3.855,1.547-6.02,1.547
			c-0.967,0-1.949-0.113-2.928-0.359c-3.168-0.789-5.73-2.754-7.342-5.311c1.113-0.604,3.322-1.9,5.377-3.754
			c1.123,0.449,2.455,0.672,3.799,0.672c2.061,0,4.156-0.516,6.082-1.596c0.961,1.809,1.424,3.764,1.424,5.697
			C46.895,38.706,46.764,39.745,46.502,40.757z M45.95,29.132c-2.229,1.736-4.863,2.574-7.477,2.574c-0.525,0-1.055-0.035-1.58-0.1
			c1.834-1.992,3.303-4.467,3.309-7.311c0-0.49-0.055-0.957-0.131-1.387c1.475-1.607,2.527-3.771,2.891-6.203l0.008-0.096
			c0.15,0.025,0.285,0.084,0.432,0.115c2.84,0.713,5.389,2.35,7.121,4.631C50.075,24.262,48.524,27.112,45.95,29.132z"/>
	</defs>
	<clipPath id="SVGID_2_">
		<use xlink:href="#SVGID_1_"  overflow="visible"/>
	</clipPath>
	<g clip-path="url(#SVGID_2_)">
		<path fill="#B3B3B3" d="M45.805,30.956c-1.926,1.08-4.021,1.596-6.083,1.596c-1.344,0-2.675-0.223-3.798-0.672
			c-2.055,1.854-4.264,3.15-5.377,3.754c1.611,2.557,4.174,4.521,7.341,5.311c0.979,0.246,1.962,0.359,2.928,0.359
			c2.165,0,4.249-0.592,6.021-1.547c0.261-1.012,0.392-2.051,0.392-3.104C47.228,34.72,46.766,32.765,45.805,30.956z"/>
		<path fill="#B3B3B3" d="M43.295,15.706c-0.364,2.432-1.416,4.596-2.892,6.203c0.077,0.43,0.131,0.896,0.131,1.387
			c-0.006,2.844-1.474,5.319-3.308,7.311c0.525,0.064,1.055,0.1,1.58,0.1c2.613,0,5.248-0.838,7.477-2.574
			c2.574-2.02,4.125-4.87,4.572-7.776c-1.733-2.281-4.282-3.918-7.121-4.631c-0.146-0.031-0.281-0.09-0.432-0.115L43.295,15.706z"/>
		<path fill="#B3B3B3" d="M41.362,13.627c0-3.275-1.291-6.244-3.309-8.393c-0.062,0-0.12,0-0.176,0
			c-2.897,0-5.436,1.029-7.736,3.111c2.198,2.338,2.988,5.303,2.988,8.268c0,0.238-0.008,0.475-0.014,0.707
			c0.495-0.127,0.996-0.186,1.488-0.186c0.037,0,0.078,0,0.131,0c1.893,0.037,3.799,0.979,4.893,2.748
			C40.723,18.051,41.362,15.917,41.362,13.627z"/>
		<path fill="#B3B3B3" d="M19.502,5.452c-0.182,0-0.354,0-0.418-0.037c-1.979,2.174-3.167,5.047-3.167,8.174
			c0,0.045,0,0.084-0.017,0.107c0.137,0,0.275-0.004,0.418-0.004c3.334,0,6.383,1.326,8.546,3.465
			c1.814,0.127,3.671,1.09,4.649,3.002c0.523-1.027,1.303-1.777,2.127-2.162c0-0.137,0.006-0.277,0.006-0.418
			c0-3.35-1.387-6.689-4.083-9.078C25.247,6.448,22.368,5.452,19.502,5.452z"/>
		<polygon fill="#E6E6E6" points="23.278,17.389 23.276,17.389 23.276,17.393 		"/>
		<path fill="#B3B3B3" d="M22.903,17.329c-1.822-1.062-3.916-1.658-6.111-1.658c-0.705,0-1.422,0.061-2.133,0.189
			c-3.227,0.578-5.926,2.375-7.68,4.736c0.477,2.922,2.021,5.672,4.514,7.616c1.82-2.442,4.372-4.02,7.01-4.528
			c0-0.123-0.006-0.262-0.006-0.393C18.493,19.983,20.548,17.932,22.903,17.329z"/>
		<path fill="#B3B3B3" d="M12.221,30.985c-0.965,1.814-1.424,3.754-1.424,5.674c0,1.146,0.162,2.281,0.412,3.289
			c1.767,0.969,3.765,1.492,5.83,1.492c0.975,0,1.964-0.119,2.961-0.363c-0.307-1.102-0.454-2.203-0.454-3.295
			c0-2.598,0.823-5.092,2.284-7.156c-1.407-1.52-2.602-3.316-3.094-5.352C16.032,26.278,13.674,28.239,12.221,30.985z"/>
		<polygon fill="#E6E6E6" points="22.494,42.274 22.491,42.274 22.36,42.337 22.366,42.337 		"/>
		<path fill="#B3B3B3" d="M29.067,48.536c2.725-1.178,5.025-3.34,6.303-6.236c-3.105-1.289-5.4-3.705-6.562-6.492
			c-0.993-0.512-3.557-1.947-5.892-4.096c-0.883,1.713-1.353,3.623-1.353,5.57c0,1.65,0.328,3.328,1.058,4.934
			C23.959,45.214,26.362,47.396,29.067,48.536z"/>
		<polygon fill="#E6E6E6" points="22.622,42.216 22.491,42.274 22.494,42.274 		"/>
	</g>
</g>
</svg>
